# xmcd
#
# Track frame offsets: 
#        150
#        17080
#        29937
#        43861
#        56702
#        69646
#        85340
#        99885
#        116751
#        128356
#        138989
#        150707
#
# Disc length: 2241 seconds
#
# Revision: 0
# Processed by: cddbd v1.5.2PL0 Copyright (c) Steve Scherf et al.
# Submitted via: ExactAudioCopy v0.99pb5
#
DISCID=a308bf0c
DTITLE=Tori Forsyth - Dawn Of The Dark
DYEAR=2018
DGENRE=Country
TTITLE0=Grave Robber's Daughter
TTITLE1=Broke Machine
TTITLE2=Snow White
TTITLE3=Redemption
TTITLE4=Heart's On The Ground
TTITLE5=Fiddle
TTITLE6=In The Morning
TTITLE7=Hell's Lullaby
TTITLE8=War Zone
TTITLE9=Violet Town
TTITLE10=White Noise
TTITLE11=Kings Horses
EXTD=
EXTT0=
EXTT1=
EXTT2=
EXTT3=
EXTT4=
EXTT5=
EXTT6=
EXTT7=
EXTT8=
EXTT9=
EXTT10=
EXTT11=
PLAYORDER=
